<svg width="27" height="21" viewBox="0 0 27 21" fill="none" xmlns="http://www.w3.org/2000/svg">
<path d="M26.0292 6.71542C25.8736 6.56258 25.6818 6.45162 25.4718 6.3929C25.2617 6.33418 25.0402 6.3296 24.8279 6.37959C24.5482 6.4442 24.2624 6.47884 23.9754 6.48292C22.9477 6.48292 21.9621 6.07467 21.2354 5.34796C20.5087 4.62126 20.1004 3.63564 20.1004 2.60792C20.1045 2.3209 20.1391 2.03512 20.2037 1.75542C20.2537 1.54313 20.2492 1.32163 20.1904 1.11158C20.1317 0.901525 20.0208 0.709765 19.8679 0.554175C19.7176 0.392219 19.5282 0.271548 19.3178 0.203703C19.1075 0.135859 18.8833 0.123109 18.6667 0.166675C17.3811 0.450503 16.2151 1.12581 15.3292 2.09965C14.4432 3.07349 13.8809 4.29798 13.7196 5.60459C13.0161 5.41717 12.2905 5.32592 11.5625 5.33334C9.70102 5.33228 7.90135 6.00126 6.49254 7.21796C5.08373 8.43466 4.15991 10.1178 3.89 11.9596C2.83883 12.2544 1.92983 12.9196 1.3309 13.8323C0.731968 14.7451 0.48356 15.8437 0.631558 16.9254C0.779555 18.007 1.31396 18.9986 2.13607 19.7169C2.95817 20.4352 4.01245 20.8318 5.10416 20.8333H16.9487C18.4321 20.8333 19.8547 20.2441 20.9035 19.1952C21.9524 18.1463 22.5417 16.7238 22.5417 15.2404C22.5467 14.3403 22.3293 13.4529 21.9087 12.6571C23.018 12.3473 24.0227 11.7431 24.8164 10.9085C25.61 10.0739 26.163 9.0401 26.4167 7.91667C26.4602 7.70002 26.4475 7.47581 26.3796 7.26549C26.3118 7.05518 26.1911 6.86578 26.0292 6.71542ZM16.9875 18.25H5.10416C4.59031 18.25 4.0975 18.0459 3.73414 17.6825C3.37079 17.3192 3.16666 16.8264 3.16666 16.3125C3.16666 15.7986 3.37079 15.3058 3.73414 14.9425C4.0975 14.5791 4.59031 14.375 5.10416 14.375C5.44674 14.375 5.77528 14.2389 6.01751 13.9967C6.25975 13.7545 6.39583 13.4259 6.39583 13.0833C6.39902 12.1548 6.65239 11.2442 7.12931 10.4475C7.60622 9.65074 8.28904 8.99725 9.10594 8.55576C9.92284 8.11426 10.8436 7.90108 11.7714 7.93864C12.6992 7.97619 13.5998 8.2631 14.3783 8.76917C15.3212 9.38252 16.0343 10.291 16.4062 11.3525C16.4801 11.5745 16.6128 11.7722 16.7902 11.9246C16.9677 12.077 17.1832 12.1784 17.4137 12.2179C17.8098 12.2485 18.196 12.3567 18.5502 12.5365C18.9045 12.7163 19.2198 12.964 19.4783 13.2657C19.7368 13.5674 19.9333 13.917 20.0567 14.2946C20.18 14.6722 20.2278 15.0704 20.1973 15.4665C20.1668 15.8625 20.0585 16.2487 19.8787 16.603C19.699 16.9572 19.4512 17.2726 19.1495 17.531C18.8479 17.7895 18.4982 17.986 18.1206 18.1094C17.743 18.2328 17.3448 18.2805 16.9487 18.25H16.9875ZM20.1392 10.3579C19.9586 10.3725 19.7772 10.3725 19.5967 10.3579C19.2986 10.1982 18.9875 10.0643 18.6667 9.95751C18.1346 8.79906 17.3276 7.7881 16.3158 7.01251C16.3158 6.85751 16.3158 6.68959 16.3158 6.53459C16.3158 5.97488 16.437 5.42181 16.6711 4.91342C16.9053 4.40504 17.2467 3.9534 17.6721 3.58959C17.8721 4.96761 18.5121 6.24409 19.4967 7.2287C20.4813 8.21332 21.7578 8.85334 23.1358 9.05334C22.7573 9.48106 22.2889 9.81981 21.7641 10.0453C21.2394 10.2709 20.6712 10.3776 20.1004 10.3579H20.1392Z" fill="black"/>
</svg>
